#!OML:ASF F:\twosubjects\two\wednesday\Session 1\rory1.ASF
:FULLY-SPECIFIED
:DEGREES
1205
root 8.56901 18.8747 9.50175 -175.399 2.11182 178.691
lowerback -0.447505 0.879659 -3.93006
upperback -0.781205 1.19275 -0.26029
thorax -0.625003 0.626536 1.93279
lowerneck -10.8526 -5.79713 -6.51121
upperneck 13.3407 -8.44319 8.56823
head 6.48163 -3.90097 3.01266
rclavicle -1.50207e-014 6.85807e-015
rhumerus -18.4908 32.3305 -98.8198
rradius 112.836
rwrist -9.87028
rhand -35.3195 53.3437
rfingers 7.12502
rthumb -8.45309 23.5328
lclavicle -1.50207e-014 6.85807e-015
lhumerus -19.392 -34.8743 98.353
lradius 117.689
lwrist 30.6227
lhand -30.3516 18.7222
lfingers 7.12502
lthumb -3.65704 48.6706
rfemur 0.191747 13.4642 13.9326
rtibia 9.71254
rfoot -6.76336 -18.9758
rtoes 2.61235
lfemur 2.92498 -9.16487 -18.4133
ltibia 3.51173
lfoot -10.8555 14.0492
ltoes -5.84306
1206
root 8.57158 18.8756 9.49832 -175.38 2.19737 178.794
lowerback -0.44549 0.940528 -3.9252
upperback -0.795545 1.27273 -0.2036
thorax -0.647103 0.666884 1.9877
lowerneck -10.9105 -5.78399 -6.5023
upperneck 13.4201 -8.42833 8.54799
head 6.51436 -3.8927 3.00446
rclavicle -7.26806e-016 -9.93923e-015
rhumerus -18.9228 33.6996 -99.745
rradius 112.59
rwrist -10.5394
rhand -33.9332 50.5836
rfingers 7.12502
rthumb -7.11505 20.7232
lclavicle -7.26806e-016 -9.93923e-015
lhumerus -19.646 -37.116 99.5711
lradius 117.062
lwrist 30.4842
lhand -31.8813 20.1074
lfingers 7.12502
lthumb -5.1341 50.0252
rfemur 0.149852 13.6339 14.0317
rtibia 9.73776
rfoot -6.78023 -18.966
rtoes 2.58914
lfemur 2.90494 -9.07088 -18.3018
ltibia 3.54134
lfoot -10.8977 14.1271
ltoes -6.27033
1207
root 8.56977 18.8776 9.49081 -175.413 2.11263 178.65
lowerback -0.501601 0.940216 -4.05372
upperback -0.798562 1.27702 -0.277599
thorax -0.620178 0.670056 1.98469
lowerneck -10.7603 -5.73647 -6.54762
upperneck 13.4328 -8.40623 8.72025
head 6.50008 -3.88043 3.07275
rclavicle -2.83268e-015 -1.74931e-014
rhumerus -19.6901 35.2922 -100.899
rradius 111.065
rwrist -8.29812
rhand -35.3732 52.9521
rfingers 7.12502
rthumb -8.50496 23.1434
lclavicle -2.83268e-015 -1.74931e-014
lhumerus -20.0813 -39.2853 100.946
lradius 116.289
lwrist 30.814
lhand -31.9894 21.0181
lfingers 7.12502
lthumb -5.23845 50.9333
rfemur 0.143386 13.6187 13.8726
rtibia 9.90792
rfoot -7.03509 -18.8879
rtoes 3.34145
lfemur 3.26436 -9.16783 -18.4936
ltibia 2.94186
lfoot -10.5638 14.4044
ltoes -8.42387
1208
root 8.56468 18.8756 9.47817 -175.567 2.01453 178.18
lowerback -0.52998 0.891703 -4.49983
upperback -0.731381 1.22055 -0.423914
thorax -0.538038 0.643205 2.08557
lowerneck -10.7003 -5.75001 -6.45174
upperneck 13.5207 -8.4587 8.69804
head 6.51666 -3.90692 3.04554
rclavicle -2.06425e-014 3.18055e-015
rhumerus -20.4169 36.6464 -101.939
rradius 110.343
rwrist -7.78992
rhand -34.2959 51.2971
rfingers 7.12502
rthumb -7.46517 21.4488
lclavicle -2.06425e-014 3.18055e-015
lhumerus -20.7837 -41.7323 102.467
lradius 115.706
lwrist 30.2064
lhand -31.4486 21.3412
lfingers 7.12502
lthumb -4.71628 51.2687
rfemur 0.265337 13.5754 13.3661
rtibia 10.1261
rfoot -7.19857 -19.024
rtoes 3.69479
lfemur 4.03175 -9.30467 -19.0879
ltibia 1.83183
lfoot -9.91728 14.5077
ltoes -9.03004
1209
root 8.5607 18.8679 9.46808 -175.714 1.93636 177.742
lowerback -0.498315 0.804321 -4.94445
upperback -0.697914 1.109 -0.534819
thorax -0.520159 0.590721 2.22048
lowerneck -10.7281 -5.71675 -6.35309
upperneck 13.6916 -8.43774 8.61191
head 6.5659 -3.89847 3.00253
rclavicle 3.64646e-015 1.2921e-014
rhumerus -20.8465 37.5293 -102.635
rradius 110.095
rwrist -8.93091
rhand -37.7152 58.8581
rfingers 7.12502
rthumb -10.7645 29.1539
lclavicle 3.64646e-015 1.2921e-014
lhumerus -21.4987 -43.2834 103.766
lradius 115.29
lwrist 30.1947
lhand -38.3357 26.9162
lfingers 7.12502
lthumb -11.3631 56.5884
rfemur 0.345629 13.1908 12.8905
rtibia 10.3743
rfoot -7.29023 -18.9348
rtoes 2.55176
lfemur 5.16477 -9.41496 -19.6348
ltibia -2.54444e-014
lfoot -9.1408 14.5778
ltoes -7.72285
1210
root 8.55995 18.8641 9.46163 -175.735 1.91026 177.712
lowerback -0.466754 0.743952 -5.05797
upperback -0.729257 1.02614 -0.50431
thorax -0.56657 0.551754 2.31479
lowerneck -10.7034 -5.63898 -6.20443
upperneck 13.6672 -8.33526 8.50133
head 6.53457 -3.85056 2.95439
rclavicle -9.93923e-017 -9.74045e-015
rhumerus -20.9657 37.6079 -102.909
rradius 110.326
rwrist -11.1631
rhand -38.6506 64.455
rfingers 7.12502
rthumb -11.6667 34.7998
lclavicle -9.93923e-017 -9.74045e-015
lhumerus -21.8148 -42.7052 104.509
lradius 115.779
lwrist 33.5382
lhand -38.5632 27.1657
lfingers 7.12502
lthumb -11.5824 56.8256
rfemur 0.263837 13.0441 12.8579
rtibia 10.6341
rfoot -7.44835 -18.8164
rtoes 2.29467
lfemur 5.22194 -9.44315 -19.6752
ltibia -6.36111e-015
lfoot -9.36402 14.5894
ltoes -7.68309
1211
root 8.56301 18.8644 9.45793 -175.671 2.03342 177.831
lowerback -0.481229 0.708968 -5.12929
upperback -0.711408 0.977322 -0.345147
thorax -0.540588 0.525491 2.51896
lowerneck -11.0661 -5.56665 -6.18576
upperneck 13.7623 -8.18493 8.33944
head 6.60834 -3.77205 2.90617
rclavicle 3.08116e-015 -6.75868e-015
rhumerus -21.0276 37.1187 -103.066
rradius 111.04
rwrist -12.5158
rhand -38.4514 63.3407
rfingers 7.12502
rthumb -11.4746 33.6748
lclavicle 3.08116e-015 -6.75868e-015
lhumerus -22.2337 -41.6474 105.196
lradius 116.141
lwrist 34.1984
lhand -37.6058 23.7526
lfingers 7.12502
lthumb -10.6591 53.4622
rfemur 0.165458 13.3013 12.9794
rtibia 10.6538
rfoot -7.55679 -18.8549
rtoes 3.37318
lfemur 5.20183 -9.31133 -19.5393
ltibia -1.59028e-014
lfoot -9.49832 14.6928
ltoes -8.60199
1212
root 8.56831 18.8676 9.45996 -175.523 2.17215 178.162
lowerback -0.595521 0.698717 -4.93783
upperback -0.671319 0.966148 -0.169132
thorax -0.434237 0.513813 2.59489
lowerneck -11.4742 -5.52184 -6.25253
upperneck 13.8964 -8.07931 8.28504
head 6.71439 -3.71108 2.90069
rclavicle 3.13086e-015 -3.08116e-015
rhumerus -20.6474 36.1231 -102.96
rradius 111.527
rwrist -12.6488
rhand -37.5531 56.1522
rfingers 7.12502
rthumb -10.6082 26.4399
lclavicle 3.13086e-015 -3.08116e-015
lhumerus -22.5188 -40.5165 105.539
lradius 116.465
lwrist 33.6313
lhand -34.8359 22.3765
lfingers 7.12502
lthumb -7.98641 52.2056
rfemur 0.0961029 13.719 13.3355
rtibia 10.381
rfoot -7.45359 -19.1904
rtoes 3.43027
lfemur 5.05222 -9.14746 -19.1281
ltibia -9.54166e-015
lfoot -9.47635 14.6589
ltoes -8.65607
1213
root 8.57083 18.8727 9.4615 -175.387 2.19227 178.656
lowerback -0.683007 0.660877 -4.52546
upperback -0.642855 0.914544 0.0180126
thorax -0.348116 0.481852 2.55775
lowerneck -11.6614 -5.47097 -6.26972
upperneck 13.8617 -7.98551 8.29487
head 6.72986 -3.65794 2.91261
rclavicle 5.14355e-015 -1.63003e-014
rhumerus -19.9408 35.3901 -102.554
rradius 111.543
rwrist -11.4724
rhand -40.0658 46.0151
rfingers 7.12502
rthumb -13.0312 16.4422
lclavicle 5.14355e-015 -1.63003e-014
lhumerus -22.6147 -39.7083 105.559
lradius 116.647
lwrist 32.4532
lhand -32.7307 22.656
lfingers 7.12502
lthumb -5.9542 52.5523
rfemur 0.126339 13.9856 13.8973
rtibia 10.0146
rfoot -7.23284 -19.5228
rtoes 3.01251
lfemur 3.38812 -9.08732 -18.5012
ltibia 2.89452
lfoot -10.6961 14.2136
ltoes -8.98901
1214
root 8.5711 18.8759 9.4624 -175.309 2.12025 178.962
lowerback -0.621842 0.557222 -4.33203
upperback -0.667439 0.768976 0.210443
thorax -0.396434 0.408823 2.64616
lowerneck -11.8957 -5.70247 -6.25271
upperneck 14.0058 -7.71467 8.18475
head 6.79647 -3.2904 2.92401
rclavicle 6.23997e-015 -3.77691e-015
rhumerus -19.5837 35.2617 -102.13
rradius 111.068
rwrist -9.72701
rhand -36.2743 51.9331
rfingers 7.12502
rthumb -9.37447 22.1616
lclavicle 6.23997e-015 -3.77691e-015
lhumerus -22.6709 -39.3623 105.582
lradius 116.733
lwrist 31.7913
lhand -32.9293 22.1283
lfingers 7.12502
lthumb -6.146 52.0192
rfemur 0.269151 13.9319 14.2563
rtibia 9.60853
rfoot -7.05296 -19.5075
rtoes 3.72997
lfemur 2.58986 -9.13178 -18.1054
ltibia 4.22929
lfoot -11.1675 14.0733
ltoes -9.67429
1215
root 8.57456 18.8737 9.46189 -175.28 2.09226 179.2
lowerback -0.561824 0.485228 -4.21646
upperback -0.696894 0.667771 0.36448
thorax -0.452981 0.359085 2.73896
lowerneck -12.0407 -5.60602 -6.27846
upperneck 14.0736 -7.57008 8.13312
head 6.83109 -3.22359 2.9237
rclavicle 1.35375e-014 2.80783e-015
rhumerus -19.4715 35.2098 -101.736
rradius 110.972
rwrist -8.70132
rhand -34.5411 52.9745
rfingers 7.12502
rthumb -7.70186 23.1348
lclavicle 1.35375e-014 2.80783e-015
lhumerus -22.6892 -39.5523 105.631
lradius 117.091
lwrist 32.497
lhand -34.4196 21.8905
lfingers 7.12502
lthumb -7.58461 51.7345
rfemur 0.47265 13.9213 14.5503
rtibia 9.20716
rfoot -6.91184 -19.4458
rtoes 4.49735
lfemur 2.088 -9.13842 -17.7984
ltibia 5.14189
lfoot -11.6634 13.9169
ltoes -9.78675
1216
root 8.57775 18.8698 9.45663 -175.347 2.1728 179.285
lowerback -0.537757 0.460066 -4.22848
upperback -0.669778 0.632819 0.427214
thorax -0.436787 0.340599 2.81024
lowerneck -12.0345 -5.54579 -6.25923
upperneck 14.0024 -7.48755 8.11793
head 6.79946 -3.1871 2.92443
rclavicle 3.45699e-015 -8.94531e-015
rhumerus -19.3129 35.0497 -101.359
rradius 111.601
rwrist -10.1899
rhand -32.1685 48.7983
rfingers 7.12502
rthumb -5.41141 18.8874
lclavicle 3.45699e-015 -8.94531e-015
lhumerus -22.321 -39.0283 105.116
lradius 116.718
lwrist 30.2946
lhand -32.3997 22.3994
lfingers 7.12502
lthumb -5.63467 52.3045
rfemur 0.67606 14.0147 14.672
rtibia 8.99027
rfoot -6.84585 -19.4263
rtoes 4.25971
lfemur 2.00297 -9.05358 -17.7113
ltibia 5.52158
lfoot -11.9606 13.7663
ltoes -9.47138
1217
root 8.57221 18.8708 9.4501 -175.392 2.25095 179.183
lowerback -0.577076 0.434528 -4.28316
upperback -0.643806 0.601565 0.367953
thorax -0.385487 0.323675 2.78046
lowerneck -11.9211 -5.49769 -6.144
upperneck 13.8715 -7.43524 8.08011
head 6.72792 -3.16466 2.90126
rclavicle 7.5942e-015 2.36057e-015
rhumerus -19.4601 35.6314 -101.291
rradius 110.963
rwrist -7.66228
rhand -33.9846 46.0548
rfingers 7.12502
rthumb -7.16474 16.1961
lclavicle 7.5942e-015 2.36057e-015
lhumerus -22.4917 -39.5373 105.074
lradius 117.123
lwrist 31.7624
lhand -34.3146 21.8861
lfingers 7.12502
lthumb -7.4832 51.7337
rfemur 0.727698 14.0881 14.524
rtibia 8.97396
rfoot -6.83259 -19.4346
rtoes 4.16646
lfemur 2.09441 -8.98601 -17.8704
ltibia 5.47925
lfoot -11.8203 13.6823
ltoes -8.68698
1218
root 8.56846 18.8724 9.44222 -175.331 2.39854 179.134
lowerback -0.746849 0.40323 -4.31249
upperback -0.608095 0.569028 0.355863
thorax -0.251152 0.304038 2.7861
lowerneck -11.9845 -5.43458 -6.09541
upperneck 13.8405 -7.34864 8.02846
head 6.71854 -3.12559 2.88427
rclavicle -8.88319e-015 5.26779e-015
rhumerus -18.9729 35.3424 -100.547
rradius 111.28
rwrist -11.0387
rhand -34.2418 48.6458
rfingers 7.12502
rthumb -7.41293 18.7957
lclavicle -8.88319e-015 5.26779e-015
lhumerus -22.0569 -39.3256 104.478
lradius 117.092
lwrist 31.4222
lhand -34.5554 22.953
lfingers 7.12502
lthumb -7.71568 52.7922
rfemur 0.620612 14.2246 14.4243
rtibia 9.02438
rfoot -6.85433 -19.3499
rtoes 4.56501
lfemur 2.17112 -8.84101 -17.9537
ltibia 5.28999
lfoot -11.7565 13.7932
ltoes -8.86668
